<svg width="52" height="40" viewBox="0 0 52 40" fill="none" xmlns="http://www.w3.org/2000/svg">
<path fill-rule="evenodd" clip-rule="evenodd" d="M21.7119 0.954194C22.1215 1.36435 22.3516 1.92034 22.3516 2.50003C22.3516 3.07972 22.1215 3.6357 21.7119 4.04586L7.94521 17.8125H49.3327C49.9129 17.8125 50.4693 18.043 50.8795 18.4532C51.2897 18.8635 51.5202 19.4199 51.5202 20C51.5202 20.5802 51.2897 21.1366 50.8795 21.5468C50.4693 21.9571 49.9129 22.1875 49.3327 22.1875H7.94521L21.7119 35.9542C21.9268 36.1545 22.0992 36.396 22.2187 36.6643C22.3383 36.9326 22.4026 37.2223 22.4078 37.516C22.413 37.8097 22.3589 38.1015 22.2489 38.3739C22.1389 38.6462 21.9751 38.8937 21.7674 39.1014C21.5597 39.3091 21.3123 39.4729 21.0399 39.5829C20.7675 39.6929 20.4757 39.7469 20.182 39.7417C19.8883 39.7366 19.5986 39.6723 19.3303 39.5527C19.062 39.4332 18.8205 39.2608 18.6202 39.0459L1.12021 21.5459C0.710563 21.1357 0.480469 20.5797 0.480469 20C0.480469 19.4203 0.710563 18.8644 1.12021 18.4542L18.6202 0.954194C19.0304 0.544547 19.5864 0.314453 20.166 0.314453C20.7457 0.314453 21.3017 0.544547 21.7119 0.954194Z" fill="black"/>
</svg>
