<svg width="52" height="40" viewBox="0 0 52 40" fill="none" xmlns="http://www.w3.org/2000/svg">
<path fill-rule="evenodd" clip-rule="evenodd" d="M30.2888 0.954194C30.699 0.544547 31.2549 0.314453 31.8346 0.314453C32.4143 0.314453 32.9703 0.544547 33.3805 0.954194L50.8805 18.4542C51.2901 18.8644 51.5202 19.4203 51.5202 20C51.5202 20.5797 51.2901 21.1357 50.8805 21.5459L33.3805 39.0459C33.1802 39.2608 32.9387 39.4332 32.6704 39.5527C32.402 39.6723 32.1124 39.7366 31.8187 39.7417C31.5249 39.7469 31.2332 39.6929 30.9608 39.5829C30.6884 39.4729 30.441 39.3091 30.2333 39.1014C30.0255 38.8937 29.8618 38.6462 29.7518 38.3739C29.6418 38.1015 29.5877 37.8097 29.5929 37.516C29.5981 37.2223 29.6624 36.9326 29.7819 36.6643C29.9015 36.396 30.0739 36.1545 30.2888 35.9542L44.0555 22.1875H2.66797C2.08781 22.1875 1.53141 21.9571 1.12117 21.5468C0.710937 21.1366 0.480469 20.5802 0.480469 20C0.480469 19.4199 0.710937 18.8635 1.12117 18.4532C1.53141 18.043 2.08781 17.8125 2.66797 17.8125H44.0555L30.2888 4.04586C29.8792 3.6357 29.6491 3.07972 29.6491 2.50003C29.6491 1.92034 29.8792 1.36435 30.2888 0.954194Z" fill="#1D1D1D"/>
</svg>
