<svg width="21" height="20" viewBox="0 0 21 20" fill="none" xmlns="http://www.w3.org/2000/svg">
<path fill-rule="evenodd" clip-rule="evenodd" d="M1.24951 0.292022C1.06174 0.225983 0.855421 0.237241 0.675948 0.323321C0.496476 0.4094 0.358549 0.563249 0.29251 0.751022C0.226471 0.938795 0.23773 1.14511 0.323809 1.32458C0.409888 1.50406 0.563737 1.64198 0.75151 1.70802L1.01351 1.79902C1.68051 2.03402 2.11951 2.18902 2.44251 2.34802C2.74551 2.49702 2.87951 2.61802 2.96751 2.74602C3.05751 2.87802 3.12751 3.06002 3.16751 3.42302C3.20751 3.80302 3.20851 4.29802 3.20851 5.03802V7.76002C3.20851 9.21302 3.22251 10.26 3.35951 11.06C3.50551 11.914 3.79751 12.526 4.34451 13.102C4.93851 13.729 5.69051 14.002 6.58751 14.128C7.44551 14.25 8.53551 14.25 9.88051 14.25H15.2865C16.0285 14.25 16.6525 14.25 17.1565 14.188C17.6935 14.123 18.1815 13.979 18.6085 13.632C19.0345 13.284 19.2735 12.835 19.4455 12.323C19.6085 11.841 19.7345 11.23 19.8845 10.503L20.3925 8.03402L20.3945 8.02902L20.4045 7.97702C20.5695 7.15202 20.7075 6.45802 20.7425 5.90002C20.7785 5.31402 20.7115 4.73602 20.3295 4.24002C20.0945 3.93402 19.7645 3.76102 19.4635 3.65602C19.1384 3.54896 18.8023 3.47852 18.4615 3.44602C17.7745 3.37002 16.9395 3.37002 16.1215 3.37002H4.66751L4.65751 3.26202C4.60351 2.76502 4.48751 2.31202 4.20451 1.90002C3.92051 1.48402 3.54251 1.21802 3.10251 1.00102C2.69051 0.799022 2.16651 0.615022 1.54951 0.398022L1.24951 0.292022ZM4.70951 4.87002H16.0895C16.9455 4.87002 17.6995 4.87102 18.2945 4.93702C18.5905 4.97102 18.8115 5.01702 18.9665 5.07102C19.0295 5.08985 19.0889 5.11891 19.1425 5.15702C19.2045 5.23902 19.2705 5.38702 19.2445 5.80802C19.2175 6.25202 19.1015 6.84402 18.9235 7.73402V7.73602L18.4235 10.156C18.2635 10.939 18.1535 11.459 18.0245 11.844C17.9015 12.21 17.7855 12.367 17.6605 12.469C17.5355 12.571 17.3575 12.653 16.9755 12.699C16.5715 12.749 16.0405 12.75 15.2415 12.75H9.93851C8.52151 12.75 7.53851 12.748 6.79851 12.643C6.08251 12.542 5.70551 12.358 5.43251 12.07C5.11251 11.732 4.93951 11.402 4.83751 10.807C4.72751 10.157 4.70851 9.24902 4.70851 7.76002L4.70951 4.87002ZM6.50051 19.75C5.90377 19.75 5.33148 19.513 4.90952 19.091C4.48756 18.6691 4.25051 18.0968 4.25051 17.5C4.25051 16.9033 4.48756 16.331 4.90952 15.909C5.33148 15.4871 5.90377 15.25 6.50051 15.25C7.09725 15.25 7.66954 15.4871 8.0915 15.909C8.51346 16.331 8.75051 16.9033 8.75051 17.5C8.75051 18.0968 8.51346 18.6691 8.0915 19.091C7.66954 19.513 7.09725 19.75 6.50051 19.75ZM5.75051 17.5C5.75051 17.6989 5.82953 17.8897 5.97018 18.0304C6.11083 18.171 6.3016 18.25 6.50051 18.25C6.69942 18.25 6.89019 18.171 7.03084 18.0304C7.17149 17.8897 7.25051 17.6989 7.25051 17.5C7.25051 17.3011 7.17149 17.1103 7.03084 16.9697C6.89019 16.829 6.69942 16.75 6.50051 16.75C6.3016 16.75 6.11083 16.829 5.97018 16.9697C5.82953 17.1103 5.75051 17.3011 5.75051 17.5ZM15.5005 19.75C14.9038 19.75 14.3315 19.513 13.9095 19.091C13.4876 18.6691 13.2505 18.0968 13.2505 17.5C13.2505 16.9033 13.4876 16.331 13.9095 15.909C14.3315 15.4871 14.9038 15.25 15.5005 15.25C16.0972 15.25 16.6695 15.4871 17.0915 15.909C17.5135 16.331 17.7505 16.9033 17.7505 17.5C17.7505 18.0968 17.5135 18.6691 17.0915 19.091C16.6695 19.513 16.0972 19.75 15.5005 19.75ZM14.7505 17.5C14.7505 17.6989 14.8295 17.8897 14.9702 18.0304C15.1108 18.171 15.3016 18.25 15.5005 18.25C15.6994 18.25 15.8902 18.171 16.0308 18.0304C16.1715 17.8897 16.2505 17.6989 16.2505 17.5C16.2505 17.3011 16.1715 17.1103 16.0308 16.9697C15.8902 16.829 15.6994 16.75 15.5005 16.75C15.3016 16.75 15.1108 16.829 14.9702 16.9697C14.8295 17.1103 14.7505 17.3011 14.7505 17.5Z" fill="#1D1D1D"/>
</svg>
