<svg width="116" height="36" viewBox="0 0 116 36" fill="none" xmlns="http://www.w3.org/2000/svg">
<path d="M14.224 28.39C11.182 28.39 8.608 27.818 6.502 26.674C4.422 25.53 2.836 23.905 1.744 21.799C0.652 19.693 0.106 17.197 0.106 14.311C0.106 12.127 0.418 10.164 1.042 8.422C1.692 6.68 2.615 5.198 3.811 3.976C5.033 2.728 6.515 1.779 8.257 1.129C9.999 0.452999 11.975 0.114999 14.185 0.114999C15.641 0.114999 17.097 0.296999 18.553 0.660999C20.035 0.998999 21.426 1.584 22.726 2.416C23.168 2.702 23.454 3.053 23.584 3.469C23.74 3.885 23.766 4.314 23.662 4.756C23.558 5.172 23.363 5.536 23.077 5.848C22.791 6.16 22.427 6.355 21.985 6.433C21.569 6.511 21.101 6.407 20.581 6.121C19.593 5.549 18.592 5.133 17.578 4.873C16.564 4.613 15.433 4.483 14.185 4.483C12.261 4.483 10.636 4.873 9.31 5.653C7.984 6.407 6.983 7.512 6.307 8.968C5.657 10.424 5.332 12.205 5.332 14.311C5.332 17.509 6.099 19.94 7.633 21.604C9.167 23.268 11.442 24.1 14.458 24.1C15.498 24.1 16.551 23.996 17.617 23.788C18.683 23.58 19.723 23.294 20.737 22.93L19.762 25.153V16.846H15.472C14.822 16.846 14.315 16.677 13.951 16.339C13.613 16.001 13.444 15.546 13.444 14.974C13.444 14.376 13.613 13.921 13.951 13.609C14.315 13.297 14.822 13.141 15.472 13.141H21.907C22.557 13.141 23.051 13.323 23.389 13.687C23.753 14.025 23.935 14.519 23.935 15.169V24.646C23.935 25.218 23.818 25.699 23.584 26.089C23.376 26.479 23.025 26.765 22.531 26.947C21.387 27.363 20.074 27.714 18.592 28C17.11 28.26 15.654 28.39 14.224 28.39ZM35.7648 28.39C33.6068 28.39 31.9818 27.779 30.8898 26.557C29.7978 25.309 29.2518 23.489 29.2518 21.097V2.65C29.2518 1.844 29.4598 1.233 29.8758 0.816999C30.2918 0.400998 30.8898 0.192998 31.6698 0.192998C32.4498 0.192998 33.0478 0.400998 33.4638 0.816999C33.9058 1.233 34.1268 1.844 34.1268 2.65V20.863C34.1268 22.059 34.3738 22.943 34.8678 23.515C35.3878 24.087 36.1158 24.373 37.0518 24.373C37.2598 24.373 37.4548 24.373 37.6368 24.373C37.8188 24.347 38.0008 24.321 38.1828 24.295C38.5468 24.243 38.7938 24.347 38.9238 24.607C39.0538 24.841 39.1188 25.335 39.1188 26.089C39.1188 26.739 38.9888 27.246 38.7288 27.61C38.4688 27.974 38.0398 28.195 37.4418 28.273C37.1818 28.299 36.9088 28.325 36.6228 28.351C36.3368 28.377 36.0508 28.39 35.7648 28.39ZM50.2125 28.39C48.2365 28.39 46.5205 27.987 45.0645 27.181C43.6085 26.375 42.4775 25.231 41.6715 23.749C40.8655 22.241 40.4625 20.473 40.4625 18.445C40.4625 16.911 40.6835 15.546 41.1255 14.35C41.5935 13.128 42.2565 12.088 43.1145 11.23C43.9725 10.346 44.9995 9.683 46.1955 9.241C47.3915 8.773 48.7305 8.539 50.2125 8.539C52.1885 8.539 53.9045 8.942 55.3605 9.748C56.8165 10.554 57.9475 11.698 58.7535 13.18C59.5595 14.662 59.9625 16.417 59.9625 18.445C59.9625 19.979 59.7285 21.357 59.2605 22.579C58.8185 23.801 58.1685 24.854 57.3105 25.738C56.4525 26.596 55.4255 27.259 54.2295 27.727C53.0335 28.169 51.6945 28.39 50.2125 28.39ZM50.2125 24.685C51.1745 24.685 52.0195 24.451 52.7475 23.983C53.4755 23.515 54.0345 22.826 54.4245 21.916C54.8405 20.98 55.0485 19.823 55.0485 18.445C55.0485 16.365 54.6065 14.818 53.7225 13.804C52.8385 12.764 51.6685 12.244 50.2125 12.244C49.2505 12.244 48.4055 12.478 47.6775 12.946C46.9495 13.388 46.3775 14.077 45.9615 15.013C45.5715 15.923 45.3765 17.067 45.3765 18.445C45.3765 20.499 45.8185 22.059 46.7025 23.125C47.5865 24.165 48.7565 24.685 50.2125 24.685ZM70.9763 28.312C70.3263 28.312 69.7673 28.156 69.2993 27.844C68.8313 27.506 68.4543 26.986 68.1683 26.284L62.5133 11.854C62.2793 11.23 62.2013 10.684 62.2793 10.216C62.3833 9.722 62.6303 9.332 63.0203 9.046C63.4103 8.76 63.9303 8.617 64.5803 8.617C65.1523 8.617 65.6203 8.76 65.9843 9.046C66.3483 9.306 66.6603 9.813 66.9203 10.567L71.6393 23.554H70.7423L75.6173 10.255C75.8253 9.683 76.0983 9.267 76.4363 9.007C76.8003 8.747 77.2683 8.617 77.8403 8.617C78.4123 8.617 78.8803 8.76 79.2443 9.046C79.6083 9.306 79.8813 9.709 80.0633 10.255L84.8603 23.554H84.0413L88.7993 10.45C89.0593 9.748 89.3843 9.267 89.7743 9.007C90.1903 8.747 90.6453 8.617 91.1393 8.617C91.7633 8.617 92.2443 8.773 92.5823 9.085C92.9203 9.397 93.1153 9.8 93.1673 10.294C93.2193 10.762 93.1283 11.282 92.8943 11.854L87.2783 26.284C87.0183 26.96 86.6413 27.467 86.1473 27.805C85.6793 28.143 85.1203 28.312 84.4703 28.312C83.8203 28.312 83.2483 28.143 82.7543 27.805C82.2863 27.467 81.9223 26.96 81.6623 26.284L76.5533 12.751H78.7763L73.7843 26.245C73.5243 26.947 73.1603 27.467 72.6923 27.805C72.2243 28.143 71.6523 28.312 70.9763 28.312ZM103.252 35.332C102.68 35.332 102.212 35.176 101.848 34.864C101.484 34.578 101.263 34.188 101.185 33.694C101.133 33.2 101.224 32.68 101.458 32.134L104.11 26.245V28.273L97.0119 11.854C96.7779 11.282 96.6999 10.749 96.7779 10.255C96.8559 9.761 97.0899 9.371 97.4799 9.085C97.8959 8.773 98.4549 8.617 99.1569 8.617C99.7549 8.617 100.236 8.76 100.6 9.046C100.964 9.306 101.289 9.813 101.575 10.567L106.84 23.71H105.67L111.052 10.528C111.338 9.8 111.676 9.306 112.066 9.046C112.456 8.76 112.976 8.617 113.626 8.617C114.198 8.617 114.653 8.773 114.991 9.085C115.329 9.371 115.537 9.761 115.615 10.255C115.693 10.723 115.602 11.243 115.342 11.815L105.865 33.46C105.527 34.188 105.163 34.682 104.773 34.942C104.383 35.202 103.876 35.332 103.252 35.332Z" fill="#1D1D1D"/>
</svg>
