<svg width="21" height="21" viewBox="0 0 21 21" fill="none" xmlns="http://www.w3.org/2000/svg">
<path d="M8.0089 4.732C9.11752 2.744 9.6714 1.75 10.5 1.75C11.3286 1.75 11.8825 2.744 12.9911 4.732L13.2781 5.2465C13.5931 5.81175 13.7506 6.09438 13.9956 6.28075C14.2406 6.46713 14.5469 6.53625 15.1594 6.6745L15.7159 6.8005C17.8684 7.28788 18.9438 7.53113 19.2001 8.3545C19.4556 9.177 18.7224 10.0354 17.255 11.7513L16.8753 12.1949C16.4588 12.6823 16.2496 12.9264 16.156 13.2274C16.0624 13.5293 16.0939 13.8548 16.1569 14.5049L16.2146 15.0973C16.436 17.3871 16.5471 18.5316 15.8769 19.04C15.2066 19.5484 14.1986 19.0846 12.1844 18.1571L11.662 17.9174C11.0898 17.6531 10.8036 17.5219 10.5 17.5219C10.1964 17.5219 9.91027 17.6531 9.33802 17.9174L8.81652 18.1571C6.8014 19.0846 5.7934 19.5484 5.12402 19.0409C4.4529 18.5316 4.56402 17.3871 4.7854 15.0973L4.84315 14.5057C4.90615 13.8547 4.93765 13.5293 4.84315 13.2283C4.7504 12.9264 4.54127 12.6823 4.12477 12.1958L3.74502 11.7513C2.27765 10.0363 1.5444 9.17788 1.7999 8.3545C2.0554 7.53113 3.13252 7.287 5.28502 6.8005L5.84152 6.6745C6.45315 6.53625 6.75852 6.46713 7.0044 6.28075C7.25027 6.09438 7.4069 5.81175 7.7219 5.2465L8.0089 4.732Z" fill="#F9C35A"/>
</svg>
