<svg width="16" height="21" viewBox="0 0 16 21" fill="none" xmlns="http://www.w3.org/2000/svg">
<path fill-rule="evenodd" clip-rule="evenodd" d="M8 0.25C6.74022 0.25 5.53204 0.750445 4.64124 1.64124C3.75045 2.53204 3.25 3.74022 3.25 5C3.25 6.25978 3.75045 7.46796 4.64124 8.35876C5.53204 9.24955 6.74022 9.75 8 9.75C9.25978 9.75 10.468 9.24955 11.3588 8.35876C12.2496 7.46796 12.75 6.25978 12.75 5C12.75 3.74022 12.2496 2.53204 11.3588 1.64124C10.468 0.750445 9.25978 0.25 8 0.25ZM4.75 5C4.75 4.13805 5.09241 3.3114 5.7019 2.7019C6.3114 2.09241 7.13805 1.75 8 1.75C8.86195 1.75 9.6886 2.09241 10.2981 2.7019C10.9076 3.3114 11.25 4.13805 11.25 5C11.25 5.86195 10.9076 6.6886 10.2981 7.2981C9.6886 7.90759 8.86195 8.25 8 8.25C7.13805 8.25 6.3114 7.90759 5.7019 7.2981C5.09241 6.6886 4.75 5.86195 4.75 5ZM8 11.25C5.96 11.25 4.078 11.72 2.678 12.52C1.3 13.308 0.25 14.51 0.25 16C0.25 17.49 1.3 18.692 2.678 19.48C4.078 20.28 5.961 20.75 8 20.75C10.039 20.75 11.922 20.28 13.322 19.48C14.7 18.692 15.75 17.49 15.75 16C15.75 14.51 14.7 13.308 13.322 12.52C11.922 11.72 10.039 11.25 8 11.25ZM1.75 16C1.75 15.28 2.267 14.483 3.422 13.823C4.556 13.175 6.173 12.75 8 12.75C9.827 12.75 11.444 13.175 12.578 13.823C13.733 14.483 14.25 15.281 14.25 16C14.25 16.719 13.733 17.517 12.578 18.177C11.444 18.825 9.827 19.25 8 19.25C6.173 19.25 4.556 18.825 3.422 18.177C2.267 17.517 1.75 16.72 1.75 16Z" fill="#1D1D1D"/>
</svg>
